<svg xmlns="http://www.w3.org/2000/svg" xmlns:xlink="http://www.w3.org/1999/xlink" viewBox="0 0 50 50" fill="#5C5B5A">
  <path fill="none" stroke="#5C5B5A" stroke-linecap="round" stroke-width="2" d="M9 49c-1.1 0-2-.9-2-2V23c0-1.1.9-2 2-2h32c1.1 0 2 .9 2 2v24c0 1.1-.9 2-2 2H9zM36 21c0 0 0-4.9 0-6 0-6.1-4.9-11-11-11-6.1 0-11 4.9-11 11 0 1.1 0 6 0 6" />
  <path d="M28,33c0-1.7-1.3-3-3-3c-1.7,0-3,1.3-3,3c0,0.9,0.4,1.7,1,2.2V38c0,1.1,0.9,2,2,2c1.1,0,2-0.9,2-2v-2.8C27.6,34.7,28,33.9,28,33z" fill="#5C5B5A" />
</svg>