<svg xmlns="http://www.w3.org/2000/svg" xmlns:xlink="http://www.w3.org/1999/xlink" viewBox="0 0 30 30" fill="#FFFFFF">
  <path d="M15.089844 3C10.131844 3 7.3202344 5.7778281 7.2402344 9.7988281L7.2402344 10L11.617188 10L11.617188 9.7988281C11.713187 8.0228281 12.941828 6.8769531 14.798828 6.8769531C16.639828 6.8769531 17.867188 7.9413594 17.867188 9.4433594C17.867188 10.945359 17.237297 11.720844 15.154297 12.964844C12.925297 14.272844 12.036094 15.726547 12.246094 18.310547L12.271484 19L16.558594 19L16.558594 18.34375C16.558594 16.79375 17.156688 16.000812 19.304688 14.757812C21.581688 13.416813 22.759766 11.721828 22.759766 9.2988281C22.759766 5.5678281 19.708844 3 15.089844 3 z M 14.507812 22C12.864813 22 11.839844 22.953813 11.839844 24.507812C11.839844 26.047813 12.865813 27 14.507812 27C16.149812 27 17.162109 26.047812 17.162109 24.507812C17.162109 22.953813 16.150813 22 14.507812 22 z" fill="#FFFFFF" />
</svg>