<svg xmlns="http://www.w3.org/2000/svg" xmlns:xlink="http://www.w3.org/1999/xlink" viewBox="0 0 32 32" fill="#9D9D9D">
  <path d="M20.5 4L14.125 4.03125C14.335938 4.089844 14.8125 4.171875 15.15625 4.75L18.3125 10.25L16.59375 11.25L22.1875 11.21875L24.9375 6.40625L23.21875 7.40625L21.59375 4.5625C21.421875 4.199219 21.152344 3.941406 20.5 4 Z M 12.625 4.6875C11.777344 4.632813 10.792969 4.929688 10.0625 5.9375L10.03125 6.03125L8 9.625L12.875 12.4375L15.625 7.59375L14.4375 5.53125C14.207031 5.148438 13.472656 4.742188 12.625 4.6875 Z M 25.34375 11.6875L20.46875 14.5L23.25 19.34375L25.625 19.34375C26.507813 19.324219 28.453125 17.640625 27.4375 15.375L27.40625 15.25 Z M 4.125 12.84375L5.84375 13.84375L4.1875 16.6875C3.976563 17.011719 3.886719 17.367188 4.25 17.90625L7.46875 23.4375C7.410156 23.207031 7.269531 22.730469 7.59375 22.15625L10.75 16.6875L12.46875 17.6875L9.65625 12.84375 Z M 19.46875 18.34375L16.6875 23.1875L19.4375 28L19.46875 26L22.75 26C23.132813 26.035156 23.480469 25.9375 23.75 25.34375L26.9375 19.8125C26.785156 19.964844 26.453125 20.324219 25.78125 20.34375L19.46875 20.34375 Z M 9.78125 20.3125L8.59375 22.375C8.171875 23.164063 8.648438 25.6875 11.125 25.9375L11.25 25.96875L15.375 25.96875L15.375 20.3125Z" fill="#9D9D9D" />
</svg>