<svg xmlns="http://www.w3.org/2000/svg" viewBox="0 0 38.84 38.84"><defs><style>.cls-1{fill:#9d9d9d;}</style></defs><title>Asset 1</title><g id="Layer_2" data-name="Layer 2"><g id="Layer_1-2" data-name="Layer 1"><path class="cls-1" d="M37.22,0H1.66A1.67,1.67,0,0,0,0,1.66V37.18a1.67,1.67,0,0,0,1.66,1.66H37.18a1.66,1.66,0,0,0,1.66-1.66V1.65A1.65,1.65,0,0,0,37.19,0M28.81,5.3S31.45,2.61,33,3.8c1.71,1.34-2.46,4.6-2.46,4.6l-8.74,7.4a11.74,11.74,0,0,0-4.24-.51Zm1.1,10.23C29,16.39,27,18,25.87,19a7.71,7.71,0,0,0-2.66-2.36l5.87-4.89s2-1.59,2.44.36c.41,1.71-1.12,3-1.61,3.47M22.84,33.12c-5.34,4-12.12,1.39-12.12,1.39C3.21,32.32,3.6,24.18,4.63,21.19c.85-2.48,2.9-4.67,3.65-7.08.5-1.61.34-3.34.35-5.49,0-2.49,1.86-1.42,2.63-.53,1.36,1.25,2.74,7.47.07,9.85-3,2.7-2.8,5-2.8,5.62S8.3,28.16,13.2,30a6.39,6.39,0,0,0,8.15-3.09c.37-1,1.2-4.25-.75-6.28s-4.79-1-6.2.45-1.48,4,.1,4.76A2.83,2.83,0,0,0,18,25.29c.63-.58,1.43-2.57-.13-3.12a1.5,1.5,0,0,0-2.14,1.66c.21.89,2,.08,1.76-.51s-.9,0-.9,0a.69.69,0,0,1,1-.55c.64.27.22,1.2.22,1.2-1.34,2.13-2.8,1-3.08.58S14,22,16.64,20.85s5.15,2.21,2.94,5.75c-2.81,4.5-9.3,1.46-9.46-2a7.73,7.73,0,0,1,4.71-7.33c6.84-2.35,9.81,2.63,10.32,3.53s3,8.35-2.31,12.33M26.4,19.75l5.13-3.68s2-1.52,1.9,1.26a3.9,3.9,0,0,1-1.71,2.77L27.57,23a7.58,7.58,0,0,0-1.17-3.23m5.8,5c-1,.71-3.32,2.12-4.61,3a17.67,17.67,0,0,0,.1-3.71l4.78-2.89s1.52-1.16,1.66.66c.11,1.42-.42,1.94-1.93,3"/></g></g></svg>