<?xml version="1.0" encoding="utf-8"?>
<!-- Generator: Adobe Illustrator 16.0.4, SVG Export Plug-In . SVG Version: 6.00 Build 0)  -->
<!DOCTYPE svg PUBLIC "-//W3C//DTD SVG 1.1//EN" "http://www.w3.org/Graphics/SVG/1.1/DTD/svg11.dtd">
<svg version="1.1" id="Layer_1" xmlns="http://www.w3.org/2000/svg" xmlns:xlink="http://www.w3.org/1999/xlink" x="0px" y="0px"
	 width="210.652px" height="59.313px" viewBox="0 0 210.652 59.313" enable-background="new 0 0 210.652 59.313"
	 xml:space="preserve">
<path fill="#FFFFFF" d="M0.54,55.832V48.01h2.157v0.922c0.119-0.263,0.295-0.467,0.479-0.615c0.183-0.145,0.372-0.258,0.566-0.338
	c0.194-0.078,0.391-0.127,0.59-0.148s0.614-0.091,0.614-0.091h0.179v2.093c-0.203-0.033-0.406-0.049-0.61-0.046
	c-1.012,0.015-1.818,0.858-1.818,1.871v4.174H0.54z"/>
<path fill="#FFFFFF" d="M7.11,52.325c0.033,0.602,0.207,1.08,0.524,1.434c0.316,0.354,0.732,0.531,1.248,0.531
	c0.343,0,0.645-0.078,0.909-0.233c0.263-0.155,0.432-0.373,0.507-0.651h2.157c-0.247,0.814-0.677,1.442-1.288,1.883
	c-0.611,0.439-1.342,0.66-2.189,0.66c-2.64,0-3.959-1.438-3.959-4.314c0-0.612,0.084-1.164,0.256-1.658
	c0.172-0.492,0.421-0.918,0.749-1.271c0.328-0.354,0.727-0.625,1.2-0.812c0.471-0.188,1.013-0.281,1.625-0.281
	c1.223,0,2.149,0.391,2.777,1.174s0.941,1.965,0.941,3.541H7.11z M10.374,51.247c-0.011-0.283-0.061-0.533-0.149-0.748
	c-0.089-0.215-0.207-0.394-0.354-0.535c-0.147-0.141-0.315-0.245-0.504-0.314c-0.189-0.068-0.383-0.102-0.582-0.102
	c-0.409,0-0.764,0.148-1.062,0.449c-0.299,0.297-0.47,0.715-0.511,1.25H10.374z"/>
<path fill="#FFFFFF" d="M18.341,55.833v-1.031c0,0-1.07,1.147-2.035,1.147c-0.493,0-0.944-0.094-1.353-0.282
	c-0.409-0.189-0.761-0.461-1.055-0.818s-0.524-0.793-0.691-1.307c-0.169-0.514-0.253-1.095-0.253-1.746
	c0-0.588,0.071-1.125,0.213-1.613c0.141-0.487,0.348-0.909,0.621-1.266c0.273-0.357,0.606-0.633,1-0.826
	c0.392-0.195,0.842-0.291,1.344-0.291c0.956,0,1.721,0.403,2.209,1.211v-3.697H20.5v10.52H18.341z M16.778,54.282
	c0.493,0,0.904-0.205,1.235-0.613c0.33-0.41,0.495-0.945,0.495-1.605c0-1.678-0.572-2.518-1.714-2.518
	c-1.175,0-1.762,0.797-1.762,2.391c0,0.693,0.162,1.258,0.487,1.693C15.844,54.064,16.263,54.282,16.778,54.282"/>
<path fill="#FFFFFF" d="M26.434,55.832v-1.166c-0.534,0.86-1.351,1.291-2.451,1.291c-0.395,0-0.755-0.069-1.08-0.206
	c-0.326-0.136-0.607-0.33-0.841-0.582c-0.235-0.251-0.42-0.55-0.553-0.896c-0.134-0.346-0.2-0.733-0.2-1.164V48.01h1.888v4.782
	c0,0.966,0.446,1.448,1.339,1.448c0.537,0,0.942-0.165,1.216-0.495c0.275-0.331,0.411-0.753,0.411-1.267V48.01h2.159v7.821H26.434z"
	/>
<path fill="#FFFFFF" d="M35.999,52.865c-0.052,0.448-0.18,0.854-0.383,1.22c-0.203,0.364-0.461,0.678-0.774,0.938
	c-0.313,0.26-0.669,0.464-1.071,0.61c-0.402,0.145-0.836,0.217-1.305,0.217c-0.522,0-0.998-0.086-1.431-0.258
	c-0.432-0.17-0.806-0.432-1.118-0.781c-0.313-0.348-0.556-0.781-0.727-1.299c-0.171-0.514-0.258-1.117-0.258-1.805
	s0.087-1.281,0.258-1.781c0.171-0.502,0.414-0.91,0.727-1.229c0.312-0.318,0.69-0.555,1.134-0.711
	c0.442-0.156,0.935-0.234,1.477-0.234c0.5,0,0.956,0.068,1.368,0.203c0.412,0.137,0.772,0.334,1.079,0.594s0.549,0.574,0.727,0.938
	c0.177,0.364,0.281,0.771,0.313,1.22h-2.048c-0.053-0.396-0.211-0.707-0.478-0.931c-0.265-0.224-0.592-0.336-0.976-0.336
	c-0.22,0-0.423,0.036-0.611,0.108c-0.187,0.074-0.351,0.195-0.492,0.369c-0.14,0.172-0.253,0.4-0.336,0.688
	c-0.084,0.285-0.125,0.638-0.125,1.055c0,0.844,0.151,1.471,0.453,1.877c0.303,0.406,0.652,0.609,1.048,0.609
	s0.735-0.109,1.016-0.328c0.282-0.219,0.443-0.537,0.485-0.954H35.999z"/>
<path fill="#FFFFFF" d="M38.375,52.325c0.034,0.602,0.207,1.08,0.524,1.434c0.315,0.354,0.732,0.531,1.247,0.531
	c0.344,0,0.646-0.078,0.909-0.233c0.264-0.155,0.433-0.373,0.508-0.651h2.156c-0.247,0.814-0.676,1.442-1.287,1.883
	c-0.611,0.439-1.342,0.66-2.189,0.66c-2.64,0-3.96-1.438-3.96-4.314c0-0.612,0.085-1.164,0.257-1.658
	c0.172-0.492,0.421-0.918,0.749-1.271s0.727-0.625,1.199-0.812c0.472-0.188,1.014-0.281,1.627-0.281
	c1.222,0,2.148,0.391,2.776,1.174c0.627,0.783,0.941,1.965,0.941,3.541H38.375z M41.639,51.247
	c-0.011-0.283-0.061-0.533-0.149-0.748c-0.089-0.215-0.207-0.394-0.355-0.535c-0.146-0.141-0.314-0.245-0.503-0.314
	c-0.189-0.068-0.383-0.102-0.582-0.102c-0.41,0-0.764,0.148-1.062,0.449c-0.299,0.297-0.47,0.715-0.511,1.25H41.639z"/>
<rect x="49.629" y="44.233" fill="#FFFFFF" width="1.618" height="13.486"/>
<path fill="#FFFFFF" d="M57.451,55.832V48.01h1.888v0.922c0.152-0.263,0.328-0.467,0.511-0.615c0.184-0.145,0.373-0.258,0.568-0.338
	c0.193-0.078,0.39-0.127,0.59-0.148c0.199-0.021,0.613-0.091,0.613-0.091h0.145v2.151c-0.067-0.031-0.254-0.047-0.444-0.047
	c-1.249,0-1.714,1.873-1.714,1.873v4.114H57.451z"/>
<path fill="#FFFFFF" d="M63.786,52.325c0.033,0.602,0.207,1.08,0.524,1.434c0.316,0.354,0.732,0.531,1.248,0.531
	c0.343,0,0.645-0.078,0.909-0.233c0.263-0.155,0.432-0.373,0.507-0.651h2.157c-0.247,0.814-0.677,1.442-1.288,1.883
	c-0.612,0.439-1.342,0.66-2.189,0.66c-2.64,0-3.959-1.438-3.959-4.314c0-0.612,0.084-1.164,0.256-1.658
	c0.172-0.492,0.421-0.918,0.749-1.271c0.328-0.354,0.727-0.625,1.2-0.812c0.471-0.188,1.013-0.281,1.625-0.281
	c1.223,0,2.149,0.391,2.777,1.174s0.941,1.965,0.941,3.541H63.786z M67.05,51.247c-0.011-0.283-0.061-0.533-0.149-0.748
	c-0.089-0.215-0.207-0.394-0.355-0.535c-0.146-0.141-0.314-0.245-0.503-0.314c-0.189-0.068-0.383-0.102-0.582-0.102
	c-0.409,0-0.764,0.148-1.062,0.449c-0.299,0.297-0.47,0.715-0.512,1.25H67.05z"/>
<path fill="#FFFFFF" d="M74.982,55.832v-1.166c-0.533,0.86-1.35,1.291-2.45,1.291c-0.395,0-0.755-0.069-1.081-0.206
	c-0.325-0.136-0.606-0.33-0.84-0.582c-0.235-0.251-0.42-0.55-0.553-0.896c-0.134-0.346-0.2-0.733-0.2-1.164V48.01h1.888v4.782
	c0,0.966,0.446,1.448,1.339,1.448c0.537,0,0.942-0.165,1.216-0.495c0.275-0.331,0.411-0.753,0.411-1.267V48.01h2.159v7.821H74.982z"
	/>
<path fill="#FFFFFF" d="M82.26,50.437c-0.054-0.362-0.189-0.628-0.409-0.794c-0.219-0.165-0.553-0.248-1.002-0.248
	c-0.428,0-0.751,0.051-0.97,0.152c-0.22,0.102-0.329,0.275-0.329,0.521c0,0.213,0.109,0.385,0.329,0.514
	c0.219,0.127,0.537,0.25,0.954,0.369c0.684,0.191,1.261,0.354,1.733,0.487c0.469,0.136,0.846,0.292,1.13,0.474
	c0.283,0.183,0.486,0.408,0.609,0.682s0.184,0.639,0.184,1.1c0,0.704-0.293,1.289-0.881,1.756c-0.589,0.465-1.459,0.696-2.615,0.696
	c-0.566,0-1.08-0.063-1.539-0.192c-0.46-0.129-0.852-0.312-1.178-0.554c-0.328-0.239-0.578-0.528-0.754-0.864
	c-0.177-0.338-0.27-0.715-0.281-1.131h2.149c0,0.373,0.146,0.662,0.441,0.865c0.293,0.203,0.676,0.305,1.147,0.305
	c0.395,0,0.734-0.061,1.018-0.185c0.283-0.122,0.424-0.312,0.424-0.569c0-0.289-0.103-0.496-0.311-0.625
	c-0.209-0.129-0.528-0.24-0.954-0.336c-0.771-0.172-1.391-0.352-1.862-0.539c-0.47-0.188-0.836-0.393-1.098-0.617
	c-0.262-0.225-0.439-0.471-0.529-0.736C77.575,50.7,77.53,50.4,77.53,50.069c0-0.299,0.061-0.582,0.184-0.852
	c0.123-0.266,0.317-0.502,0.585-0.704c0.268-0.203,0.614-0.367,1.043-0.49c0.427-0.122,0.951-0.185,1.571-0.185
	c1.133,0,1.962,0.23,2.487,0.691c0.523,0.459,0.811,1.096,0.865,1.907H82.26z"/>
<path fill="#FFFFFF" d="M86.758,52.325c0.033,0.602,0.207,1.08,0.524,1.434c0.316,0.354,0.731,0.531,1.247,0.531
	c0.344,0,0.646-0.078,0.909-0.233s0.433-0.373,0.508-0.651h2.156c-0.247,0.814-0.676,1.442-1.287,1.883
	c-0.612,0.439-1.342,0.66-2.189,0.66c-2.64,0-3.96-1.438-3.96-4.314c0-0.612,0.085-1.164,0.257-1.658
	c0.172-0.492,0.421-0.918,0.748-1.271c0.328-0.354,0.728-0.625,1.201-0.812c0.471-0.188,1.013-0.281,1.625-0.281
	c1.223,0,2.149,0.391,2.776,1.174c0.628,0.783,0.942,1.965,0.942,3.541H86.758z M90.022,51.247
	c-0.011-0.283-0.061-0.533-0.149-0.748c-0.09-0.215-0.208-0.394-0.355-0.535c-0.146-0.141-0.314-0.245-0.503-0.314
	c-0.189-0.068-0.383-0.102-0.582-0.102c-0.41,0-0.764,0.148-1.062,0.449c-0.299,0.297-0.47,0.715-0.512,1.25H90.022z"/>
<rect x="98.179" y="44.233" fill="#FFFFFF" width="1.618" height="13.486"/>
<path fill="#FFFFFF" d="M105.731,55.832V48.01h1.888v0.922c0.256-0.263,0.432-0.467,0.615-0.615
	c0.184-0.145,0.372-0.258,0.566-0.338c0.195-0.078,0.392-0.127,0.59-0.148c0.199-0.021,0.613-0.091,0.613-0.091h0.312v2.093
	c-0.203-0.033-0.404-0.049-0.607-0.046c-1.014,0.013-1.82,0.858-1.82,1.871v4.174H105.731z"/>
<path fill="#FFFFFF" d="M112.168,52.325c0.035,0.602,0.207,1.08,0.525,1.434c0.315,0.354,0.731,0.531,1.247,0.531
	c0.343,0,0.646-0.078,0.909-0.233s0.432-0.373,0.507-0.651h2.157c-0.247,0.814-0.676,1.442-1.288,1.883
	c-0.61,0.439-1.341,0.66-2.188,0.66c-2.64,0-3.959-1.438-3.959-4.314c0-0.612,0.084-1.164,0.256-1.658
	c0.172-0.492,0.421-0.918,0.748-1.271c0.328-0.354,0.729-0.625,1.201-0.812c0.472-0.188,1.014-0.281,1.625-0.281
	c1.224,0,2.148,0.391,2.776,1.174s0.94,1.965,0.94,3.541H112.168z M115.433,51.247c-0.01-0.283-0.062-0.533-0.149-0.748
	s-0.207-0.394-0.354-0.535c-0.146-0.141-0.314-0.245-0.504-0.314c-0.188-0.068-0.383-0.102-0.582-0.102
	c-0.409,0-0.764,0.148-1.062,0.449c-0.299,0.297-0.469,0.715-0.511,1.25H115.433z"/>
<path fill="#FFFFFF" d="M125.119,52.865c-0.052,0.448-0.18,0.854-0.384,1.22c-0.203,0.364-0.46,0.678-0.773,0.938
	c-0.313,0.26-0.67,0.464-1.071,0.61c-0.401,0.145-0.836,0.217-1.306,0.217c-0.522,0-0.998-0.086-1.43-0.258
	c-0.433-0.17-0.806-0.432-1.118-0.781c-0.312-0.348-0.557-0.781-0.727-1.299c-0.172-0.514-0.258-1.117-0.258-1.805
	s0.086-1.281,0.258-1.781c0.17-0.502,0.414-0.91,0.727-1.229s0.689-0.555,1.133-0.711s0.936-0.234,1.477-0.234
	c0.502,0,0.957,0.068,1.369,0.203c0.412,0.137,0.771,0.334,1.08,0.594c0.307,0.26,0.549,0.574,0.726,0.938
	c0.178,0.364,0.282,0.771,0.313,1.22h-2.048c-0.053-0.396-0.212-0.707-0.478-0.931s-0.592-0.336-0.977-0.336
	c-0.22,0-0.423,0.036-0.611,0.108c-0.187,0.074-0.351,0.195-0.491,0.369c-0.14,0.172-0.253,0.4-0.337,0.688
	c-0.083,0.285-0.125,0.638-0.125,1.055c0,0.844,0.152,1.471,0.453,1.877c0.303,0.406,0.652,0.609,1.048,0.609
	c0.397,0,0.735-0.109,1.017-0.328s0.443-0.537,0.484-0.954H125.119z"/>
<path fill="#FFFFFF" d="M130.545,54.667c-0.145,0.344-0.404,0.611-0.783,0.804c-0.377,0.192-0.804,0.288-1.279,0.288
	c-0.403,0-0.775-0.065-1.117-0.195c-0.342-0.129-0.635-0.316-0.883-0.561c-0.25-0.244-0.442-0.537-0.584-0.873
	c-0.139-0.338-0.207-0.719-0.207-1.146V48.01h1.887v4.72c0,0.966,0.449,1.448,1.346,1.448c0.486,0,0.878-0.137,1.176-0.409
	c0.297-0.272,0.445-0.619,0.445-1.039v-4.72h2.158v7.873c0,0.539-0.098,1.023-0.291,1.449s-0.459,0.785-0.797,1.076
	s-0.735,0.514-1.194,0.67c-0.46,0.156-0.948,0.234-1.47,0.234c-1.206,0-2.107-0.285-2.705-0.857s-0.896-1.356-0.896-2.354h2.217
	c0,0.458,0.133,0.815,0.396,1.075c0.264,0.261,0.659,0.39,1.186,0.39c0.187,0,0.362-0.038,0.527-0.116
	c0.166-0.078,0.312-0.187,0.442-0.326c0.13-0.142,0.233-0.315,0.311-0.523s0.116-0.436,0.116-0.686V54.667z"/>
<path fill="#FFFFFF" d="M140.397,52.865c-0.054,0.448-0.181,0.854-0.384,1.22c-0.203,0.364-0.461,0.678-0.773,0.938
	c-0.312,0.26-0.67,0.464-1.072,0.61c-0.4,0.145-0.836,0.217-1.305,0.217c-0.521,0-0.998-0.086-1.43-0.258
	c-0.434-0.17-0.807-0.432-1.118-0.781c-0.313-0.348-0.556-0.781-0.728-1.299c-0.172-0.514-0.258-1.117-0.258-1.805
	s0.086-1.281,0.258-1.781c0.172-0.502,0.414-0.91,0.728-1.229c0.312-0.318,0.69-0.555,1.133-0.711
	c0.443-0.156,0.935-0.234,1.478-0.234c0.5,0,0.955,0.068,1.367,0.203c0.414,0.137,0.772,0.334,1.08,0.594s0.549,0.574,0.728,0.938
	c0.177,0.364,0.28,0.771,0.313,1.22h-2.049c-0.053-0.396-0.211-0.707-0.479-0.931c-0.264-0.224-0.592-0.336-0.977-0.336
	c-0.219,0-0.422,0.036-0.609,0.108c-0.188,0.074-0.353,0.195-0.492,0.369c-0.141,0.172-0.253,0.4-0.337,0.688
	c-0.083,0.285-0.125,0.638-0.125,1.055c0,0.844,0.151,1.471,0.454,1.877s0.652,0.609,1.047,0.609c0.396,0,0.736-0.109,1.017-0.328
	c0.282-0.219,0.443-0.537,0.485-0.954H140.397z"/>
<rect x="140.795" y="45.312" fill="#FFFFFF" width="2.156" height="10.519"/>
<path fill="#FFFFFF" d="M145.621,52.325c0.033,0.602,0.207,1.08,0.523,1.434c0.315,0.354,0.732,0.531,1.247,0.531
	c0.345,0,0.646-0.078,0.909-0.233s0.434-0.373,0.508-0.651h2.156c-0.246,0.814-0.676,1.442-1.287,1.883
	c-0.611,0.439-1.342,0.66-2.189,0.66c-2.64,0-3.959-1.438-3.959-4.314c0-0.612,0.084-1.164,0.256-1.658
	c0.172-0.492,0.422-0.918,0.75-1.271c0.326-0.354,0.727-0.625,1.199-0.812c0.471-0.188,1.014-0.281,1.627-0.281
	c1.221,0,2.147,0.391,2.774,1.174c0.628,0.783,0.942,1.965,0.942,3.541H145.621z M148.885,51.247
	c-0.012-0.283-0.061-0.533-0.148-0.748c-0.09-0.215-0.207-0.394-0.355-0.535c-0.146-0.141-0.314-0.245-0.503-0.314
	c-0.188-0.068-0.384-0.102-0.582-0.102c-0.41,0-0.765,0.148-1.062,0.449c-0.3,0.297-0.471,0.715-0.513,1.25H148.885z"/>
<rect x="156.978" y="44.233" fill="#FFFFFF" width="1.619" height="13.486"/>
<path fill="#FFFFFF" d="M164.8,55.832V48.01h1.888v0.922c0.049-0.263,0.227-0.467,0.409-0.615c0.183-0.145,0.373-0.258,0.566-0.338
	c0.196-0.078,0.392-0.127,0.591-0.148s0.613-0.091,0.613-0.091h0.248v2.093c-0.202-0.033-0.404-0.049-0.607-0.046
	c-1.014,0.013-1.82,0.858-1.82,1.871v4.174H164.8z"/>
<path fill="#FFFFFF" d="M171.031,52.325c0.033,0.602,0.207,1.08,0.524,1.434c0.316,0.354,0.731,0.531,1.247,0.531
	c0.344,0,0.646-0.078,0.909-0.233c0.264-0.155,0.433-0.373,0.508-0.651h2.156c-0.246,0.814-0.677,1.442-1.287,1.883
	c-0.612,0.439-1.341,0.66-2.188,0.66c-2.641,0-3.961-1.438-3.961-4.314c0-0.612,0.086-1.164,0.258-1.658
	c0.172-0.492,0.42-0.918,0.748-1.271s0.728-0.625,1.201-0.812c0.471-0.188,1.012-0.281,1.625-0.281c1.223,0,2.148,0.391,2.775,1.174
	c0.628,0.783,0.941,1.965,0.941,3.541H171.031z M174.296,51.247c-0.011-0.283-0.062-0.533-0.149-0.748
	c-0.089-0.215-0.207-0.394-0.354-0.535c-0.146-0.141-0.314-0.245-0.504-0.314c-0.189-0.068-0.383-0.102-0.582-0.102
	c-0.41,0-0.764,0.148-1.062,0.449c-0.299,0.297-0.47,0.715-0.512,1.25H174.296z"/>
<path fill="#FFFFFF" d="M181.522,50.708h1.888v2.203c0,0.408-0.06,0.799-0.178,1.172c-0.119,0.373-0.307,0.703-0.559,0.99
	c-0.254,0.289-0.573,0.518-0.961,0.686c-0.388,0.166-0.851,0.25-1.389,0.25c-0.558,0-1.033-0.084-1.427-0.25
	c-0.394-0.168-0.717-0.395-0.97-0.678c-0.254-0.283-0.437-0.613-0.551-0.992c-0.113-0.377-0.17-0.775-0.17-1.194v-7.042h1.887v2.158
	h4.316v1.617h-4.316v2.867c0,0.445,0.096,0.789,0.283,1.029c0.188,0.242,0.496,0.362,0.924,0.362c0.418,0,0.726-0.118,0.924-0.354
	c0.199-0.236,0.298-0.572,0.298-1.008V50.708z"/>
<path fill="#FFFFFF" d="M189.075,55.832v-4.799c0-0.587-0.104-0.989-0.313-1.203c-0.207-0.216-0.553-0.323-1.035-0.323
	c-0.256,0-0.485,0.051-0.688,0.149c-0.203,0.101-0.374,0.235-0.515,0.409c-0.137,0.172-0.241,0.373-0.312,0.598
	c-0.069,0.227-0.104,0.471-0.104,0.732v4.437h-2.157V45.313h2.157v3.818c0.072-0.166,0.183-0.326,0.33-0.477
	c0.149-0.15,0.32-0.279,0.516-0.385c0.193-0.104,0.409-0.188,0.645-0.25c0.236-0.062,0.481-0.094,0.738-0.094
	c0.778,0,1.41,0.217,1.896,0.65c0.488,0.434,0.73,1.035,0.73,1.809v5.446H189.075z"/>
<path fill="#FFFFFF" d="M191.771,45.312h2.158V47.2h-2.158V45.312z M191.771,48.01h2.158v7.822h-2.158V48.01z"/>
<path fill="#FFFFFF" d="M199.863,55.832v-4.688c0-0.599-0.102-1.002-0.305-1.211c-0.203-0.211-0.549-0.315-1.043-0.315
	c-1.08,0-1.619,0.592-1.619,1.778v4.437h-2.157V48.01h2.157v1.145c0.244-0.446,0.568-0.781,0.971-1.01s0.924-0.342,1.559-0.342
	c0.373,0,0.717,0.055,1.037,0.166c0.317,0.112,0.59,0.279,0.818,0.502s0.408,0.496,0.541,0.818s0.199,0.697,0.199,1.121v5.421
	H199.863z"/>
<polygon fill="#FFFFFF" points="207.438,55.832 205.719,52.319 204.719,53.352 204.719,55.832 202.561,55.832 202.561,45.313 
	204.719,45.313 204.719,50.983 207.293,48.01 209.822,48.01 207.199,50.887 209.758,55.832 "/>
<path fill="#FFFFFF" d="M66.875,0.809c1.773,0,3.389,0.157,4.848,0.47c1.46,0.313,2.711,0.826,3.754,1.537
	c1.043,0.713,1.85,1.66,2.424,2.841c0.573,1.182,0.86,2.642,0.86,4.379c0,1.876-0.426,3.44-1.277,4.692
	c-0.419,0.616-0.937,1.176-1.553,1.682c-0.788,0.648-0.671,1.898,0.215,2.405c1.111,0.637,2.008,1.456,2.693,2.455
	c1.129,1.651,1.694,3.642,1.694,5.969c0,1.877-0.364,3.502-1.094,4.874c-0.73,1.373-1.712,2.495-2.946,3.362
	c-1.234,0.869-2.641,1.513-4.222,1.93c-1.582,0.417-3.206,0.625-4.874,0.625H50.82c-0.806,0-1.46-0.654-1.46-1.461V2.27
	c0-0.807,0.654-1.461,1.46-1.461H66.875z M65.939,15.913c1.447,0,2.635-0.344,3.566-1.034c0.931-0.688,1.396-1.808,1.396-3.359
	c0-0.86-0.156-1.567-0.465-2.119c-0.311-0.551-0.724-0.982-1.242-1.292c-0.515-0.31-1.11-0.526-1.782-0.646
	c-0.672-0.12-1.37-0.181-2.093-0.181h-6.137c-0.807,0-1.461,0.654-1.461,1.462v5.708c0,0.807,0.654,1.461,1.461,1.461H65.939z
	 M66.506,31.827c0.802,0,1.569-0.079,2.302-0.236c0.731-0.156,1.376-0.418,1.934-0.784c0.557-0.366,1.001-0.863,1.333-1.491
	c0.331-0.627,0.497-1.428,0.497-2.405c0-1.917-0.541-3.285-1.621-4.105c-1.081-0.819-2.51-1.229-4.288-1.229h-7.481
	c-0.807,0-1.461,0.655-1.461,1.462v7.327c0,0.807,0.654,1.461,1.461,1.461H66.506z"/>
<path fill="#FFFFFF" d="M106.119,0.809c1.668,0,3.172,0.27,4.511,0.808c1.338,0.539,2.485,1.278,3.442,2.216
	c0.955,0.938,1.686,2.025,2.19,3.258c0.503,1.233,0.756,2.563,0.756,3.988c0,2.188-0.461,4.084-1.382,5.681
	c-0.922,1.6-2.426,2.816-4.512,3.65v0.079c1.014,0.278,1.854,0.705,2.518,1.279c0.664,0.574,1.206,1.253,1.626,2.036
	c0.419,0.783,0.724,1.644,0.918,2.584c0.191,0.94,0.323,1.88,0.392,2.819c0.035,0.593,0.072,1.288,0.106,2.088
	c0.034,0.801,0.097,1.619,0.183,2.453c0.088,0.836,0.228,1.627,0.42,2.377l0.007,0.024c0.241,0.954-0.478,1.88-1.462,1.88h-4.848
	c-0.66,0-1.242-0.438-1.412-1.076c-0.254-0.936-0.416-1.986-0.492-3.152c-0.104-1.635-0.262-3.202-0.471-4.7
	c-0.281-1.948-0.875-3.375-1.785-4.28c-0.91-0.904-2.395-1.357-4.458-1.357h-6.772c-0.808,0-1.462,0.655-1.462,1.462v11.642
	c0,0.807-0.654,1.461-1.461,1.461h-5.169c-0.807,0-1.462-0.654-1.462-1.461V2.27c0-0.807,0.655-1.461,1.462-1.461H106.119z
	 M103.135,17.801c1.884,0,3.297-0.418,4.238-1.256c0.943-0.837,1.414-2.198,1.414-4.082c0-1.813-0.471-3.131-1.414-3.952
	c-0.941-0.818-2.354-1.229-4.238-1.229h-7.54c-0.808,0-1.462,0.654-1.462,1.462v7.596c0,0.807,0.654,1.461,1.462,1.461H103.135z"/>
<path fill="#FFFFFF" d="M131.894,2.157v34.412c0,0.807-0.653,1.461-1.461,1.461h-5.169c-0.807,0-1.461-0.654-1.461-1.461V2.271
	c0-0.807,0.654-1.462,1.461-1.462h5.186c0.797,0,1.444,0.655,1.444,1.463"/>
<path fill="#FFFFFF" d="M146.484,1.078c0.505,0,0.975,0.259,1.24,0.686l15.082,24.128h0.105V2.27c0-0.807,0.654-1.462,1.461-1.462
	h4.631c0.806,0,1.459,0.655,1.459,1.462v34.299c0,0.807-0.653,1.461-1.461,1.461h-6.111c-0.498,0-0.961-0.26-1.223-0.688
	l-14.836-24.126h-0.104v23.353c0,0.807-0.654,1.461-1.463,1.461h-4.629c-0.805,0-1.461-0.654-1.461-1.461V2.539
	c0-0.807,0.656-1.461,1.461-1.461H146.484z"/>
<path fill="#FFFFFF" d="M199.681,37.877c-1.771,0.746-3.56,1.12-5.364,1.12c-2.848,0-5.408-0.495-7.683-1.485
	c-2.275-0.988-4.193-2.352-5.757-4.089c-1.562-1.735-2.76-3.776-3.592-6.12c-0.834-2.343-1.25-4.87-1.25-7.577
	c0-2.779,0.416-5.357,1.25-7.735c0.832-2.379,2.03-4.453,3.592-6.224c1.563-1.771,3.481-3.16,5.757-4.167
	c2.274-1.007,4.835-1.511,7.683-1.511c1.908,0,3.758,0.287,5.547,0.859c1.787,0.574,3.402,1.416,4.844,2.527
	c1.44,1.111,2.631,2.483,3.567,4.115c0.669,1.163,1.151,2.45,1.449,3.86c0.19,0.908-0.501,1.765-1.431,1.765h-4.864
	c-0.623,0-1.183-0.396-1.377-0.987c-0.536-1.62-1.392-2.871-2.567-3.753c-1.404-1.053-3.107-1.579-5.107-1.579
	c-1.862,0-3.441,0.359-4.74,1.079c-1.299,0.72-2.352,1.685-3.159,2.897c-0.81,1.211-1.397,2.588-1.765,4.133
	c-0.369,1.546-0.553,3.143-0.553,4.793c0,1.58,0.184,3.115,0.553,4.608c0.367,1.492,0.955,2.835,1.765,4.028
	c0.808,1.194,1.86,2.151,3.159,2.871c1.299,0.721,2.878,1.08,4.74,1.08c2.738,0,4.853-0.693,6.346-2.081
	c1.136-1.055,1.909-2.472,2.323-4.25c0.212-0.911-0.496-1.78-1.433-1.78h-5.144c-0.808,0-1.461-0.654-1.461-1.461v-3.281
	c0-0.807,0.653-1.462,1.461-1.462h12.722c0.807,0,1.461,0.655,1.461,1.462v17.305c0,0.808-0.654,1.462-1.462,1.462h-2.631
	c-0.698,0-1.3-0.494-1.435-1.179l-0.047-0.235c-0.219-1.113-1.563-1.553-2.41-0.797c-0.94,0.84-1.937,1.482-2.987,1.926"/>
<path fill="#FFFFFF" d="M37.222,0H1.656C0.745,0,0,0.745,0,1.656v35.528c0,0.91,0.745,1.656,1.656,1.656h35.528
	c0.912,0,1.656-0.746,1.656-1.656V1.653C38.84,0.743,38.097,0,37.187,0 M28.81,5.301c0,0,2.645-2.695,4.157-1.506
	c1.717,1.35-2.452,4.603-2.452,4.603l-8.747,7.404c-1.58-0.519-3.144-0.571-4.239-0.51L28.81,5.301z M29.909,15.526
	c-0.959,0.867-2.916,2.48-4.043,3.422c-0.766-1.088-1.692-1.841-2.657-2.357l5.875-4.891c0,0,1.976-1.588,2.439,0.364
	C31.928,13.767,30.403,15.079,29.909,15.526 M22.839,33.124c-5.338,3.982-12.124,1.389-12.124,1.389
	c-7.507-2.197-7.113-10.336-6.084-13.327c0.853-2.481,2.894-4.666,3.648-7.081c0.499-1.601,0.345-3.335,0.35-5.49
	c0.006-2.49,1.864-1.411,2.629-0.522c1.358,1.251,2.739,7.469,0.07,9.845c-3.034,2.699-2.799,4.988-2.797,5.617
	c0.003,0.678-0.228,4.6,4.672,6.454s7.726-2.061,8.146-3.093c0.375-1.026,1.199-4.248-0.75-6.272
	c-1.949-2.024-4.788-1.048-6.203,0.446c-1.415,1.495-1.479,3.96,0.108,4.759c1.77,0.891,2.919-0.066,3.456-0.562
	c0.63-0.581,1.428-2.567-0.134-3.122c-1.561-0.555-2.352,0.767-2.141,1.663c0.21,0.895,1.978,0.082,1.769-0.512
	c-0.241-0.685-0.904-0.039-0.904-0.039c0.226-0.925,1.009-0.551,1.009-0.551c0.639,0.269,0.224,1.2,0.224,1.2
	c-1.339,2.138-2.807,1.009-3.084,0.587c-0.278-0.423-0.735-2.515,1.943-3.661c2.678-1.145,5.146,2.206,2.935,5.748
	c-2.809,4.5-9.298,1.457-9.453-2.011c-0.232-5.152,4.352-7.211,4.704-7.332c6.841-2.347,9.813,2.628,10.322,3.532
	C25.659,21.693,28.178,29.142,22.839,33.124 M26.395,19.746l5.13-3.672c0,0,2.054-1.525,1.904,1.26
	c-0.094,1.743-1.709,2.769-1.709,2.769l-4.148,2.881C27.268,21.095,26.644,20.087,26.395,19.746 M32.203,24.743
	c-1.019,0.712-3.327,2.118-4.616,2.951c0.179-1.454,0.19-2.683,0.105-3.71l4.777-2.894c0,0,1.524-1.156,1.661,0.663
	C34.236,23.168,33.706,23.693,32.203,24.743"/>
</svg>
