<svg width="178" height="33" viewBox="0 0 178 33" fill="none" xmlns="http://www.w3.org/2000/svg">
<path d="M56.509 0.683594C58.0072 0.683594 59.3727 0.816257 60.6055 1.08074C61.8392 1.34522 62.8963 1.7787 63.7776 2.37949C64.6589 2.98197 65.3408 3.78217 65.8258 4.78011C66.31 5.77888 66.5525 7.01257 66.5525 8.48032C66.5525 10.0655 66.1926 11.3871 65.4735 12.445C65.1194 12.9655 64.6817 13.4387 64.1612 13.8663C63.4954 14.4138 63.5942 15.4701 64.3429 15.8985C65.2817 16.4367 66.0396 17.1288 66.6184 17.9729C67.5724 19.368 68.0499 21.0504 68.0499 23.0167C68.0499 24.6027 67.7423 25.9758 67.1254 27.1352C66.5086 28.2953 65.6788 29.2434 64.6361 29.976C63.5934 30.7103 62.4045 31.2545 61.0686 31.6068C59.7318 31.9592 58.3595 32.135 56.9501 32.135H42.9427C42.2616 32.135 41.709 31.5823 41.709 30.9004V1.91812C41.709 1.23622 42.2616 0.683594 42.9427 0.683594H56.509V0.683594ZM55.7181 13.4463C56.9408 13.4463 57.9446 13.1556 58.7313 12.5726C59.518 11.9912 59.9109 11.0449 59.9109 9.73428C59.9109 9.00759 59.7791 8.41018 59.518 7.94375C59.2552 7.47816 58.9062 7.11397 58.4685 6.85202C58.0333 6.59007 57.5306 6.40756 56.9627 6.30616C56.3949 6.20476 55.8051 6.15321 55.1942 6.15321H50.0085C49.3266 6.15321 48.7739 6.70584 48.7739 7.38859V12.2118C48.7739 12.8937 49.3266 13.4463 50.0085 13.4463H55.7181ZM56.1972 26.8935C56.8749 26.8935 57.523 26.8267 58.1423 26.6941C58.76 26.5623 59.3051 26.3409 59.7766 26.0316C60.2472 25.7223 60.6224 25.3024 60.9029 24.7717C61.1826 24.2419 61.3229 23.5651 61.3229 22.7395C61.3229 21.1197 60.8657 19.9637 59.9532 19.2708C59.0397 18.5788 57.8322 18.2323 56.3298 18.2323H50.0085C49.3266 18.2323 48.7739 18.7858 48.7739 19.4677V25.659C48.7739 26.3409 49.3266 26.8935 50.0085 26.8935H56.1972V26.8935Z" fill="#DE472B"/>
<path d="M89.6697 0.683594C91.0791 0.683594 92.35 0.911741 93.4814 1.36635C94.612 1.8218 95.5812 2.44624 96.3899 3.23884C97.1968 4.03144 97.8145 4.94995 98.2404 5.99182C98.6654 7.03369 98.8792 8.15753 98.8792 9.36164C98.8792 11.2105 98.4897 12.8126 97.7114 14.162C96.9324 15.514 95.6615 16.5415 93.8989 17.2462V17.313C94.7557 17.5479 95.4655 17.9087 96.0265 18.3937C96.5876 18.8788 97.0456 19.4525 97.4005 20.1141C97.7545 20.7758 98.0123 21.5033 98.1762 22.2976C98.3376 23.0919 98.4491 23.8862 98.5074 24.6796C98.537 25.1807 98.5683 25.768 98.597 26.444C98.6257 27.1208 98.679 27.812 98.7516 28.5167C98.826 29.2231 98.9443 29.8915 99.1065 30.5253L99.1124 30.5455C99.3161 31.3517 98.7085 32.1341 97.8771 32.1341H93.7806C93.2229 32.1341 92.7311 31.764 92.5874 31.2249C92.3728 30.434 92.2359 29.5468 92.1717 28.5615C92.0838 27.1799 91.9503 25.8558 91.7737 24.59C91.5363 22.944 91.0343 21.7382 90.2654 20.9735C89.4965 20.2096 88.2416 19.8268 86.4984 19.8268H80.7762C80.0934 19.8268 79.5408 20.3803 79.5408 21.0622V30.8996C79.5408 31.5815 78.9882 32.1341 78.3063 32.1341H73.9385C73.2566 32.1341 72.7031 31.5815 72.7031 30.8996V1.91812C72.7031 1.23622 73.2566 0.683594 73.9385 0.683594H89.6697V0.683594ZM87.1482 15.0417C88.7402 15.0417 89.9342 14.6885 90.7293 13.9804C91.5261 13.2731 91.9241 12.1231 91.9241 10.5311C91.9241 8.99914 91.5261 7.88544 90.7293 7.19171C89.9342 6.5005 88.7402 6.15321 87.1482 6.15321H80.777C80.0943 6.15321 79.5416 6.70584 79.5416 7.38859V13.8071C79.5416 14.489 80.0943 15.0417 80.777 15.0417H87.1482V15.0417Z" fill="#DE472B"/>
<path d="M111.449 1.82264V30.9004C111.449 31.5823 110.897 32.135 110.215 32.135H105.847C105.165 32.135 104.612 31.5823 104.612 30.9004V1.91897C104.612 1.23706 105.165 0.683594 105.847 0.683594H110.229C110.902 0.683594 111.449 1.23706 111.449 1.91981" fill="#DE472B"/>
<path d="M123.776 0.911253C124.203 0.911253 124.6 1.13011 124.824 1.49092L137.568 21.8788H137.657V1.91848C137.657 1.23657 138.21 0.683105 138.892 0.683105H142.805C143.486 0.683105 144.038 1.23657 144.038 1.91848V30.9008C144.038 31.5827 143.486 32.1353 142.803 32.1353H137.639C137.219 32.1353 136.827 31.9156 136.606 31.554L124.07 11.1677H123.982V30.9008C123.982 31.5827 123.429 32.1353 122.746 32.1353H118.834C118.154 32.1353 117.6 31.5827 117.6 30.9008V2.14578C117.6 1.46388 118.154 0.911253 118.834 0.911253H123.776Z" fill="#DE472B"/>
<path d="M168.729 32.0052C167.232 32.6356 165.721 32.9516 164.196 32.9516C161.79 32.9516 159.626 32.5333 157.704 31.6968C155.782 30.8619 154.161 29.7094 152.839 28.2416C151.52 26.7755 150.507 25.0509 149.804 23.0703C149.1 21.0905 148.748 18.9552 148.748 16.6678C148.748 14.3195 149.1 12.1412 149.804 10.1318C150.507 8.12155 151.52 6.36904 152.839 4.87256C154.16 3.37608 155.781 2.20239 157.704 1.35149C159.626 0.500582 161.79 0.074707 164.196 0.074707C165.808 0.074707 167.372 0.317219 168.883 0.800553C170.393 1.28558 171.758 1.99706 172.976 2.93584C174.193 3.87463 175.2 5.03395 175.99 6.41298C176.556 7.3957 176.963 8.4832 177.215 9.67464C177.375 10.4419 176.792 11.166 176.006 11.166H171.896C171.369 11.166 170.896 10.8314 170.732 10.332C170.279 8.96316 169.556 7.90608 168.563 7.16079C167.377 6.27102 165.938 5.82655 164.248 5.82655C162.674 5.82655 161.34 6.12991 160.242 6.7383C159.145 7.34669 158.255 8.16211 157.573 9.18623C156.889 10.2095 156.393 11.3731 156.082 12.6786C155.77 13.9849 155.614 15.3344 155.614 16.7286C155.614 18.0637 155.77 19.3608 156.082 20.6223C156.392 21.8831 156.889 23.0179 157.573 24.0259C158.256 25.0349 159.145 25.8435 160.242 26.4519C161.34 27.0612 162.674 27.3645 164.248 27.3645C166.561 27.3645 168.348 26.7789 169.61 25.6061C170.57 24.7146 171.223 23.5173 171.573 22.0149C171.752 21.2451 171.154 20.5108 170.362 20.5108H166.015C165.333 20.5108 164.781 19.9582 164.781 19.2763V16.5038C164.781 15.8219 165.333 15.2685 166.015 15.2685H176.765C177.447 15.2685 178 15.8219 178 16.5038V31.1264C178 31.8092 177.447 32.3618 176.765 32.3618H174.541C173.952 32.3618 173.443 31.9443 173.329 31.3655L173.289 31.167C173.104 30.2265 171.968 29.8547 171.253 30.4935C170.458 31.2033 169.616 31.7458 168.729 32.121" fill="#DE472B"/>
<path d="M31.4522 0H1.3993C0.629517 0 0 0.629518 0 1.3993V31.4201C0 32.189 0.629517 32.8194 1.3993 32.8194H31.4201C32.1907 32.8194 32.8194 32.189 32.8194 31.4201V1.39677C32.8194 0.627828 32.1916 0 31.4226 0H31.4522ZM24.3442 4.47929C24.3442 4.47929 26.5792 2.20204 27.8568 3.20674C29.3076 4.34747 25.7849 7.09623 25.7849 7.09623L18.3937 13.3525C17.0587 12.914 15.7371 12.87 14.8118 12.9216L24.3442 4.47929ZM25.2728 13.1193C24.4625 13.8519 22.8088 15.2149 21.8565 16.0109C21.2092 15.0915 20.4268 14.4552 19.6114 14.0192L24.5757 9.88638C24.5757 9.88638 26.2454 8.54454 26.6366 10.194C26.9788 11.633 25.6902 12.7416 25.2728 13.1193ZM19.2987 27.9894C14.7882 31.3542 9.05407 29.1631 9.05407 29.1631C2.71073 27.3067 3.04365 20.4293 3.91315 17.902C4.63392 15.8055 6.35855 13.9592 6.99567 11.9186C7.41732 10.5658 7.28719 9.10054 7.29142 7.27959C7.29649 5.17556 8.86648 6.08731 9.5129 6.8385C10.6604 7.89559 11.8273 13.1497 9.57205 15.1574C7.00835 17.4381 7.20692 19.3722 7.20861 19.9037C7.21114 20.4766 7.01595 23.7907 11.1564 25.3573C15.2969 26.9239 17.6848 23.6158 18.0397 22.7438C18.3566 21.8768 19.0528 19.1542 17.4059 17.444C15.7591 15.7337 13.3601 16.5584 12.1645 17.8208C10.9688 19.0841 10.9147 21.167 12.2557 21.8421C13.7514 22.595 14.7223 21.7864 15.176 21.3673C15.7084 20.8763 16.3827 19.1982 15.0628 18.7292C13.7438 18.2602 13.0754 19.3773 13.2537 20.1344C13.4311 20.8907 14.9251 20.2037 14.7485 19.7018C14.5448 19.123 13.9846 19.6688 13.9846 19.6688C14.1755 18.8872 14.8372 19.2032 14.8372 19.2032C15.3771 19.4305 15.0265 20.2172 15.0265 20.2172C13.895 22.0238 12.6546 21.0698 12.4205 20.7132C12.1856 20.3558 11.7994 18.5881 14.0623 17.6197C16.3252 16.6522 18.4106 19.4838 16.5424 22.4767C14.1688 26.2792 8.68565 23.7079 8.55468 20.7775C8.35864 16.4241 12.2321 14.6842 12.5295 14.582C18.3101 12.5988 20.8214 16.8026 21.2515 17.5665C21.6816 18.3304 23.8101 24.6247 19.2987 27.9894ZM22.3035 16.6852L26.6383 13.5824C26.6383 13.5824 28.3739 12.2938 28.2472 14.6471C28.1677 16.1199 26.8031 16.9868 26.8031 16.9868L23.2981 19.4212C23.0412 17.8251 22.5139 16.9733 22.3035 16.6852ZM27.2112 20.9076C26.3502 21.5092 24.3999 22.6973 23.3107 23.4012C23.462 22.1725 23.4713 21.134 23.3995 20.2662L27.436 17.8208C27.436 17.8208 28.7237 16.844 28.8395 18.3811C28.9291 19.5767 28.4812 20.0203 27.2112 20.9076Z" fill="#DE472B"/>
</svg>
